<svg version="1.1" id="Layer_1" xmlns="http://www.w3.org/2000/svg" xmlns:xlink="http://www.w3.org/1999/xlink" x="0px" y="0px"
	 width="1080px" height="550px" viewBox="0 0 1080 550" enable-background="new 0 0 1080 550" xml:space="preserve">
<g>
	<polyline opacity="0.3" points="547.287,-0.25 1078.194,-0.25 529.444,550.25 1.806,550.25 "/>
	<polygon opacity="0.6" fill="#015393" points="857.476,137.418 857.476,96.292 451.5,96.292 350.419,197.291 350.419,454.371 
		857.476,454.371 857.476,411.51 391.462,411.402 391.462,220.496 468.429,137.335 "/>
	<polyline opacity="0.6" fill="#FFCB05" points="857.476,96.237 857.453,137.311 941.382,137.286 941.194,369.391 982.32,369.391 
		982.32,96.184 "/>
	<rect x="857.382" y="369.434" fill="#FFCB05" width="83.791" height="42.031" />
	<polyline fill="#3ba8e8" points="941.382,137.34 941.194,369.402 857.444,369.434 857.502,411.465 391.132,411.402 
		391.132,220.527 468.319,137.34 	"/>
</g>
</svg>
