<svg version="1.1" id="Layer_1" xmlns="http://www.w3.org/2000/svg" xmlns:xlink="http://www.w3.org/1999/xlink" x="0px" y="0px" viewBox="526.529 -1141 1572.579 1478.997"
	 enable-background="new 526.529 -1141 1572.579 1478.997" xml:space="preserve">
<g>
	<path fill="#00D8FF" d="M638.878,334.503l-49.189-77.131h-39.002v77.131h-24.158V140.365h78.005
		c35.509,0,61.123,22.703,61.123,58.503c0,34.928-24.158,54.139-50.645,56.467l52.391,79.169H638.878L638.878,334.503z
		 M640.625,198.867c0-22.121-16.009-36.965-39.002-36.965h-50.936v74.222h50.936C624.616,236.124,640.625,220.698,640.625,198.867z"
		/>
	<path fill="#00D8FF" d="M686.028,264.067c0-40.749,29.107-73.639,69.273-73.639c42.496,0,67.527,33.181,67.527,75.385v5.53H709.313
		c1.746,26.487,20.083,48.608,50.353,48.608c16.3,0,32.309-6.403,43.66-18.046l10.478,14.262
		c-14.262,13.972-33.181,21.83-55.884,21.83C716.008,337.995,686.028,308.017,686.028,264.067z M755.01,208.473
		c-29.981,0-44.825,25.322-45.988,46.57h92.267C800.998,234.377,787.027,208.473,755.01,208.473z"/>
	<path fill="#00D8FF" d="M945.943,334.503v-16.009c-11.351,12.807-27.651,19.501-46.57,19.501
		c-23.576,0-48.898-16.008-48.898-46.569c0-31.726,25.031-46.279,48.898-46.279c19.21,0,35.219,6.112,46.57,18.92v-25.323
		c0-18.628-15.135-29.397-35.509-29.397c-16.882,0-30.562,5.821-43.078,19.502l-10.187-15.136
		c15.135-15.718,33.181-23.285,56.175-23.285c29.98,0,54.429,13.39,54.429,47.442v96.634H945.943L945.943,334.503z M945.943,304.815
		v-26.777c-8.44-11.352-23.285-17.173-38.421-17.173c-20.666,0-34.926,12.808-34.926,30.562c0,18.045,14.26,30.852,34.926,30.852
		C922.658,322.278,937.502,316.457,945.943,304.815z"/>
	<path fill="#00D8FF" d="M1003.574,264.067c0-41.623,28.232-73.639,70.146-73.639c25.613,0,40.748,10.479,51.518,24.449
		l-14.554,13.098c-9.314-12.807-21.248-18.046-35.801-18.046c-29.688,0-48.607,22.994-48.607,54.139
		c0,31.144,18.919,54.428,48.607,54.428c14.553,0,26.487-5.821,35.801-18.337l14.554,13.39
		c-10.77,13.97-25.904,24.448-51.518,24.448C1031.806,337.995,1003.574,305.688,1003.574,264.067z"/>
	<path fill="#00D8FF" d="M1160.452,305.107V213.13h-23.287v-19.211h23.287v-38.42h22.12v38.42h28.524v19.211h-28.524v87.318
		c0,10.479,4.658,18.046,13.971,18.046c6.403,0,11.934-2.91,14.844-6.112l6.403,16.591c-5.529,5.239-13.388,9.023-25.904,9.023
		C1170.93,337.995,1160.452,326.062,1160.452,305.107z"/>
	<path fill="#00D8FF" d="M1455.291,334.503l-113.223-154.845v154.845h-24.158V140.365h24.74l111.768,151.644V140.365h24.159v194.139
		H1455.291z"/>
	<path fill="#00D8FF" d="M1611.006,334.503v-16.009c-11.351,12.807-27.651,19.501-46.569,19.501
		c-23.576,0-48.898-16.008-48.898-46.569c0-31.726,25.032-46.279,48.898-46.279c19.21,0,35.219,6.112,46.569,18.92v-25.323
		c0-18.628-15.136-29.397-35.509-29.397c-16.882,0-30.562,5.821-43.077,19.502l-10.188-15.136
		c15.136-15.718,33.182-23.285,56.175-23.285c29.98,0,54.43,13.39,54.43,47.442v96.634H1611.006L1611.006,334.503z
		 M1611.006,304.815v-26.777c-8.44-11.352-23.284-17.173-38.42-17.173c-20.666,0-34.927,12.808-34.927,30.562
		c0,18.045,14.261,30.852,34.927,30.852C1587.722,322.278,1602.565,316.457,1611.006,304.815z"/>
	<path fill="#00D8FF" d="M1681.151,305.107V213.13h-23.286v-19.211h23.286v-38.42h22.12v38.42h28.524v19.211h-28.524v87.318
		c0,10.479,4.658,18.046,13.972,18.046c6.403,0,11.933-2.91,14.844-6.112l6.403,16.591c-5.53,5.239-13.389,9.023-25.904,9.023
		C1691.63,337.995,1681.151,326.062,1681.151,305.107z"/>
	<path fill="#00D8FF" d="M1758.572,159.283c0-8.15,6.694-14.845,14.844-14.845s14.553,6.695,14.553,14.845
		s-6.403,14.553-14.553,14.553C1765.266,173.837,1758.572,167.433,1758.572,159.283z M1762.355,334.503V193.92h21.83v140.583
		H1762.355z"/>
	<path fill="#00D8FF" d="M1865.389,334.503l-58.503-140.583h23.866l46.57,115.261l46.861-115.261h23.575l-58.503,140.583H1865.389z"
		/>
	<path fill="#00D8FF" d="M1962.309,264.067c0-40.749,29.106-73.639,69.272-73.639c42.496,0,67.527,33.181,67.527,75.385v5.53
		h-113.515c1.746,26.487,20.084,48.608,50.353,48.608c16.3,0,32.31-6.403,43.659-18.046l10.479,14.262
		c-14.262,13.972-33.181,21.83-55.884,21.83C1992.288,337.995,1962.309,308.017,1962.309,264.067z M2031.291,208.473
		c-29.98,0-44.824,25.322-45.987,46.57h92.266C2077.277,234.377,2063.307,208.473,2031.291,208.473z"/>
</g>
<g>
	<path fill="#61DAFB" d="M1312.403-678.073c65.858,0,119.256,53.389,119.256,119.247c0,65.867-53.397,119.266-119.256,119.266
		c-65.858,0-119.257-53.399-119.257-119.266C1193.146-624.683,1246.545-678.073,1312.403-678.073z"/>
	<path fill="#61DAFB" d="M1763.795-751.169c-23.109-8.982-46.18-16.672-71.814-23.08c6.409-25.654,11.536-50.016,15.381-74.377
		c21.788-139.774-2.563-237.232-69.25-275.702c-19.228-11.535-42.316-16.671-66.688-16.671c-73.097,0-166.699,53.86-260.303,144.909
		C1218.79-1087.139,1126.469-1141,1052.091-1141c-24.363,0-47.442,5.136-66.678,16.671c-66.688,38.47-91.049,134.647-67.969,271.856
		c3.845,24.362,8.981,48.725,15.391,74.368c-25.644,7.7-48.725,15.391-71.814,23.091
		C731.51-705.008,659.696-635.757,659.696-560.108c0,76.931,71.813,146.183,201.324,194.925c23.09,8.973,46.17,16.663,71.814,23.07
		c-6.409,25.654-11.545,50.026-15.391,74.378c-21.798,137.219,2.563,234.667,67.969,271.856
		c19.235,11.536,42.315,16.663,66.678,16.663c74.377,2.564,166.699-51.287,260.312-141.045
		c93.604,91.04,185.924,144.909,260.302,144.909c24.371,0,47.461-5.146,66.688-16.681c66.687-38.47,91.04-134.638,67.969-271.857
		c-3.845-24.352-8.972-48.724-15.381-74.376c25.635-7.691,48.705-15.381,71.814-23.072
		c129.491-50.024,201.306-119.275,201.306-194.916C1965.101-633.194,1893.286-702.444,1763.795-751.169z M1572.705-1082.012
		c14.117,0,25.652,2.563,37.208,8.981c42.296,24.362,57.696,101.303,39.732,211.578c-3.845,21.798-8.972,44.888-14.099,69.25
		c-53.87-11.544-111.548-20.517-171.826-26.935c-34.624-50.006-71.813-94.885-109.002-134.637
		C1431.659-1029.434,1509.882-1082.012,1572.705-1082.012z M1081.58-425.461c12.826,21.789,24.372,42.315,38.47,62.842
		c-39.752-5.126-76.931-11.536-112.838-19.245c11.536-34.625,24.362-70.514,39.752-106.438
		C1057.218-467.776,1068.763-445.968,1081.58-425.461z M1007.212-734.497c35.907-7.7,73.086-14.108,112.838-19.235
		c-12.816,20.517-25.644,41.034-38.47,62.832c-12.817,21.799-24.362,42.316-34.616,64.115
		C1030.292-663.974,1017.465-699.881,1007.212-734.497z M1077.735-558.826c16.671-34.616,34.625-69.241,55.142-103.866
		c19.235-33.334,41.034-66.678,62.833-100.021c38.471-2.563,76.941-3.846,116.694-3.846c41.034,0,79.505,1.283,116.693,3.846
		c23.09,33.344,43.597,66.688,62.822,100.021c20.526,34.625,38.489,69.25,55.152,103.866
		c-16.663,34.625-34.626,69.241-55.152,103.885c-19.226,33.325-41.015,66.669-62.822,100.013
		c-38.471,2.563-76.94,3.845-116.693,3.845c-41.034,0-79.505-1.282-116.694-3.845c-23.08-33.344-43.597-66.688-62.833-100.013
		C1112.36-489.585,1094.406-524.2,1077.735-558.826z M1544.508-426.743c11.535-19.225,23.07-41.033,34.606-62.842
		c15.398,35.925,28.235,71.814,39.77,106.439c-35.905,7.709-73.095,14.119-112.847,19.245
		C1518.854-384.427,1531.69-404.954,1544.508-426.743z M1544.508-692.181c-12.817-21.798-24.372-42.315-38.471-62.832
		c39.752,5.126,76.941,11.535,112.847,19.235c-11.534,35.897-24.371,71.804-39.77,107.711L1544.508-692.181z M1312.403-910.177
		c24.353,26.926,48.724,56.424,71.813,85.913c-23.089-1.282-47.46-1.282-71.813-1.282c-24.354,0-48.725,0-71.814,1.282
		C1263.679-855.035,1288.05-883.252,1312.403-910.177z M1016.184-1073.031c10.263-6.418,23.081-8.981,37.188-8.981
		c62.833,0,141.055,51.297,217.997,128.238c-37.189,39.752-73.096,84.631-108.994,134.637
		c-60.269,5.136-117.975,14.108-171.835,26.935c-6.408-23.081-10.263-46.17-14.108-69.25
		C958.479-970.447,972.587-1047.387,1016.184-1073.031z M949.506-397.245C805.888-438.279,719.965-501.12,719.965-558.826
		c0-50.006,58.988-100.021,162.864-139.773c20.517-7.69,43.597-15.381,66.678-21.799c16.672,52.579,37.189,106.439,62.833,161.572
		C986.695-503.683,964.896-448.531,949.506-397.245z M1053.373-35.63c-14.108,0-25.644-2.563-37.188-8.972
		c-43.597-24.371-57.706-102.594-39.752-211.597c3.845-21.789,8.981-44.878,14.108-69.251
		c53.861,11.555,111.557,20.527,171.835,26.936c34.616,50.005,71.805,94.903,108.994,134.637
		C1194.428-88.218,1116.206-35.63,1053.373-35.63z M1240.589-293.368c23.09,1.282,47.461,1.282,71.814,1.282
		c24.353,0,48.724,0,71.813-1.282c-23.089,30.761-47.46,58.978-71.813,85.912C1288.05-234.39,1263.679-262.607,1240.589-293.368z
		 M1608.631-44.601c-10.273,6.408-23.09,8.972-37.207,8.972c-62.823,0-141.046-51.306-217.986-128.247
		c37.188-39.734,73.095-84.632,109.002-134.637c60.278-5.127,117.956-14.099,171.825-26.936c6.409,23.09,10.254,46.181,14.1,69.251
		C1666.327-147.196,1652.209-68.972,1608.631-44.601z M1741.968-419.053c-20.508,7.691-43.578,15.381-66.669,21.808
		c-16.681-52.568-37.188-106.438-62.822-161.581c25.635-55.133,47.423-108.993,62.822-161.572
		c143.609,41.034,229.541,103.876,229.541,161.572C1904.84-508.81,1845.861-458.805,1741.968-419.053z"/>
</g>
</svg>
